<?xml version="1.0" standalone="no"?>
<!DOCTYPE svg PUBLIC "-//W3C//DTD SVG 20010904//EN"
 "http://www.w3.org/TR/2001/REC-SVG-20010904/DTD/svg10.dtd">
<svg version="1.0" xmlns="http://www.w3.org/2000/svg"
 width="610.000000pt" height="610.000000pt" viewBox="0 0 610.000000 610.000000"
 preserveAspectRatio="xMidYMid meet">
<metadata>
Created by potrace 1.14, written by Peter Selinger 2001-2017
</metadata>
<g transform="translate(0.000000,610.000000) scale(0.100000,-0.100000)"
fill="#000000" stroke="none">
<path d="M2880 6094 c-819 -57 -1535 -397 -2079 -989 -427 -463 -693 -1043
-778 -1694 -22 -172 -22 -550 0 -722 86 -652 351 -1231 779 -1695 500 -543
1141 -873 1887 -971 172 -22 550 -22 722 0 746 98 1387 428 1887 971 428 464
693 1043 779 1695 22 172 22 550 0 722 -98 746 -428 1387 -971 1887 -463 426
-1055 698 -1689 777 -121 15 -435 26 -537 19z m577 -303 c491 -75 933 -268
1328 -579 90 -72 355 -337 427 -427 317 -402 509 -850 585 -1360 25 -169 25
-581 0 -750 -76 -510 -268 -958 -585 -1360 -72 -90 -337 -355 -427 -427 -402
-317 -850 -509 -1360 -585 -169 -25 -581 -25 -750 0 -510 76 -958 268 -1360
585 -90 72 -355 337 -427 427 -317 402 -509 850 -585 1360 -25 169 -25 581 0
750 76 510 268 958 585 1360 72 90 337 355 427 427 444 350 919 539 1510 602
107 11 504 -3 632 -23z"/>
<path d="M2540 5024 c-14 -2 -68 -12 -120 -20 -195 -33 -437 -131 -610 -246
-349 -234 -599 -598 -689 -1003 -123 -554 51 -1136 456 -1526 317 -305 700
-460 1138 -460 336 0 639 92 913 276 40 26 74 46 75 44 1 -2 25 -38 51 -79
245 -378 712 -768 1011 -845 78 -20 121 -19 171 4 34 15 45 28 59 65 26 69 9
154 -60 293 -148 296 -511 671 -828 854 -40 23 -73 43 -75 44 -1 1 20 35 47
76 197 298 295 678 263 1025 -15 161 -33 247 -82 395 -182 550 -642 955 -1225
1079 -76 16 -144 22 -285 25 -102 2 -196 2 -210 -1z m375 -349 c138 -22 230
-51 354 -111 370 -177 619 -492 712 -899 31 -139 32 -386 1 -525 -57 -261
-173 -473 -361 -660 -247 -246 -553 -371 -906 -371 -273 0 -494 67 -725 219
-102 68 -257 219 -329 322 -105 150 -190 353 -222 530 -20 108 -17 355 5 460
67 324 240 600 501 798 91 69 301 173 407 202 186 51 391 63 563 35z"/>
<path d="M2080 4180 l0 -120 58 0 c82 0 231 -27 333 -61 503 -163 853 -610
895 -1141 l7 -88 118 0 119 0 -5 28 c-2 15 -7 67 -10 116 -20 315 -175 659
-408 903 -263 274 -575 429 -952 473 -50 5 -105 10 -122 10 l-33 0 0 -120z"/>
<path d="M2047 3843 c-4 -3 -7 -57 -7 -118 l0 -112 73 -6 c332 -29 624 -237
755 -540 35 -80 72 -234 72 -299 l0 -38 120 0 120 0 -5 38 c-2 20 -7 64 -10
98 -3 34 -17 102 -30 153 -96 359 -389 662 -750 774 -107 33 -323 65 -338 50z"/>
<path d="M2040 3349 l0 -105 83 -15 c114 -22 189 -61 268 -139 79 -78 126
-168 142 -269 l11 -71 108 0 108 0 -6 48 c-13 110 -28 163 -75 259 -41 86 -62
116 -127 180 -42 43 -106 95 -142 116 -84 48 -206 87 -297 94 l-73 6 0 -104z"/>
<path d="M2130 3048 c-193 -34 -235 -309 -60 -398 92 -46 190 -30 257 43 143
155 11 391 -197 355z"/>
<path d="M2246 1239 c-213 -12 -390 -36 -425 -58 -48 -30 44 -60 254 -83 165
-18 915 -18 1080 0 147 16 250 39 266 58 9 11 5 17 -23 28 -123 52 -716 80
-1152 55z"/>
</g>
</svg>
