<svg xmlns="http://www.w3.org/2000/svg" xmlns:xlink="http://www.w3.org/1999/xlink" viewBox="0 0 81 81" fill="#fff" fill-rule="evenodd" stroke="#000" stroke-linecap="round" stroke-linejoin="round"><use xlink:href="#A" x=".5" y=".5"/><symbol id="A" overflow="visible"><path d="M63.309 0H11.138C5.06 0 0 4.851 0 10.744v58.512C0 75.119 5.029 80 11.138 80h57.725C74.94 80 80 75.149 80 69.256V15.833L63.309 0zm9.811 69.226c0 2.292-1.851 4.077-4.227 4.077H11.138c-2.376 0-4.227-1.786-4.227-4.077v-58.75c0-2.292 1.851-4.077 4.227-4.077h48.716v13.006H73.09v49.821zM24.126 27.59v5.357c0 3.065-1.327 4.613-3.702 4.613v4.613c2.653 0 3.702 1.548 3.702 4.345v5.863c0 3.066.802 5.119 2.129 6.399 1.604 1.548 4.227 2.292 8.207 2.292v-4.613c-1.327 0-2.376-.268-3.178-1.012-.524-.506-.802-1.786-.802-3.333v-4.851c0-3.839-1.327-6.399-3.702-7.411h0c2.653-1.012 3.702-3.333 3.702-7.143V27.59c0-2.798 1.327-4.077 3.98-4.077V18.9c-3.98 0-6.633.774-8.207 2.292-1.327 1.042-2.129 3.333-2.129 6.399zm29.125 5.357v-5.625c0-3.065-.802-5.119-2.129-6.637-1.604-1.548-4.227-2.292-8.207-2.292v4.583c2.653 0 3.98 1.28 3.98 4.077v4.851c0 4.077 1.327 6.399 3.702 7.411h0c-2.653 1.012-3.702 3.333-3.702 7.143v5.119c0 1.548-.278 2.559-.802 3.333s-1.604 1.012-3.178 1.012v4.613c3.98 0 6.633-.774 8.207-2.292 1.327-1.28 2.129-3.572 2.129-6.637v-5.625c0-3.065 1.327-4.613 3.702-4.613v-4.345c-2.376.536-3.702-1.012-3.702-4.077z" fill="#2a3282" stroke="none"/></symbol></svg>