<?xml version="1.0" standalone="no"?>
<!DOCTYPE svg PUBLIC "-//W3C//DTD SVG 20010904//EN"
 "http://www.w3.org/TR/2001/REC-SVG-20010904/DTD/svg10.dtd">
<svg version="1.0" xmlns="http://www.w3.org/2000/svg"
 width="818.000000pt" height="818.000000pt" viewBox="0 0 818.000000 818.000000"
 preserveAspectRatio="xMidYMid meet">
<metadata>
Created by potrace 1.14, written by Peter Selinger 2001-2017
</metadata>
<g transform="translate(0.000000,818.000000) scale(0.100000,-0.100000)"
fill="#000000" stroke="none">
<path d="M275 7481 c-189 -64 -277 -230 -263 -493 16 -279 215 -516 583 -693
112 -55 385 -158 450 -171 6 -1 62 -16 125 -33 63 -16 158 -39 210 -50 111
-24 328 -64 410 -77 19 -3 60 -9 90 -14 30 -5 78 -12 105 -15 28 -4 61 -8 75
-10 14 -2 48 -7 75 -10 80 -11 98 -13 140 -19 22 -3 67 -8 100 -11 33 -4 74
-8 90 -10 17 -2 59 -6 95 -10 36 -3 81 -8 100 -10 47 -6 129 -13 225 -20 44
-3 96 -8 115 -10 19 -2 73 -7 120 -10 47 -4 105 -8 130 -10 25 -2 90 -7 145
-10 55 -3 123 -8 150 -10 28 -2 95 -6 150 -9 108 -6 224 -13 350 -21 44 -3
132 -8 195 -10 63 -3 151 -7 195 -10 44 -2 139 -7 210 -10 280 -12 344 -15
445 -20 58 -3 157 -7 220 -10 256 -11 349 -16 430 -20 186 -10 279 -15 370
-20 52 -3 128 -7 168 -10 133 -9 216 -15 282 -20 36 -3 97 -8 135 -10 39 -3
84 -7 100 -10 17 -2 65 -7 108 -10 42 -4 89 -10 105 -15 23 -7 20 -9 -23 -10
-27 -2 -59 -4 -70 -5 -18 -3 -94 -7 -327 -20 -240 -13 -707 -18 -2008 -20
-811 -2 -1531 -5 -1600 -9 -69 -3 -172 -8 -230 -11 -58 -4 -134 -8 -170 -10
-86 -5 -216 -15 -260 -20 -19 -2 -64 -7 -100 -10 -36 -3 -81 -8 -100 -11 -19
-2 -53 -6 -75 -9 -22 -2 -71 -9 -110 -15 -38 -7 -86 -14 -105 -17 -28 -4 -271
-55 -315 -67 -63 -16 -177 -55 -250 -84 -166 -66 -259 -124 -355 -221 -113
-115 -161 -237 -163 -416 -1 -113 4 -146 32 -227 74 -215 289 -367 631 -447
47 -11 108 -23 135 -27 28 -3 53 -8 56 -9 3 -2 39 -7 80 -10 41 -3 85 -8 99
-10 59 -9 311 -17 510 -17 261 1 461 8 790 27 52 3 131 7 175 10 44 2 132 7
195 11 63 4 135 8 160 9 25 1 104 6 175 10 373 21 617 29 920 29 352 0 624
-19 649 -44 6 -6 8 -10 5 -10 -5 0 -231 -44 -381 -74 -16 -4 -40 -8 -55 -11
-181 -35 -298 -59 -348 -71 -33 -8 -67 -16 -75 -18 -113 -28 -301 -82 -390
-112 -87 -30 -185 -66 -215 -78 -16 -7 -46 -19 -65 -27 -66 -25 -249 -118
-317 -161 -292 -182 -460 -394 -529 -668 -31 -120 -38 -184 -38 -345 0 -157 9
-256 39 -424 24 -135 25 -144 35 -181 5 -19 11 -46 14 -60 3 -14 7 -36 10 -50
8 -37 54 -213 82 -310 14 -47 26 -92 28 -100 5 -17 55 -191 86 -300 31 -105
61 -159 115 -209 73 -67 112 -81 239 -81 93 0 115 3 153 22 68 34 116 81 150
145 54 103 59 182 18 313 -15 47 -33 110 -41 140 -15 57 -57 202 -74 255 -9
31 -40 149 -45 175 -2 8 -10 42 -19 75 -20 78 -42 186 -52 255 -10 68 -11 292
-1 343 28 148 115 285 247 389 45 36 196 129 215 132 5 1 24 9 40 18 94 49
455 163 605 192 120 22 456 92 540 112 58 14 113 27 123 29 11 2 80 23 155 45
574 172 819 383 807 697 -6 142 -104 290 -260 392 -22 14 -42 28 -45 32 -16
18 -239 122 -320 149 -81 27 -127 39 -255 66 -31 6 -235 34 -290 39 -288 26
-854 26 -1335 0 -184 -10 -291 -16 -345 -20 -33 -2 -109 -7 -170 -10 -60 -4
-141 -8 -180 -10 -447 -27 -678 -35 -960 -35 -198 0 -352 6 -410 14 -16 3 -52
7 -80 11 -175 22 -277 67 -232 102 16 13 127 54 127 48 0 -3 8 -2 18 4 9 5 40
12 67 15 28 4 59 9 70 11 40 9 79 14 149 20 39 3 91 8 116 10 216 19 413 20
2555 15 1092 -3 1378 3 1815 35 89 7 188 15 230 20 19 2 60 7 90 10 30 2 73 7
95 10 22 3 56 8 76 10 82 9 273 45 469 90 58 13 271 90 336 121 288 138 430
331 425 574 -5 264 -233 432 -711 525 -119 23 -175 31 -265 41 -22 2 -51 6
-65 9 -14 2 -74 9 -135 15 -60 6 -128 13 -150 15 -22 2 -76 7 -120 10 -44 3
-98 8 -120 10 -37 4 -180 13 -300 20 -27 2 -95 6 -150 9 -171 11 -326 19 -595
31 -58 3 -154 7 -215 10 -181 9 -330 14 -510 20 -93 3 -217 7 -275 10 -58 2
-184 7 -280 10 -96 4 -197 8 -225 10 -27 2 -115 7 -195 10 -80 4 -163 8 -185
10 -22 1 -94 6 -160 9 -66 4 -145 9 -175 12 -30 2 -89 6 -130 9 -41 3 -95 7
-120 10 -25 2 -83 7 -130 10 -47 3 -96 8 -110 10 -14 2 -61 7 -105 10 -44 4
-93 8 -110 10 -16 2 -57 6 -90 10 -109 11 -215 23 -265 30 -19 3 -53 7 -75 9
-79 9 -415 62 -510 81 -11 2 -42 8 -70 14 -403 80 -684 185 -798 297 -52 51
-67 83 -72 157 -6 84 -13 114 -40 167 -32 63 -98 126 -164 157 -72 34 -199 41
-276 14z"/>
</g>
</svg>
