<svg width="662" height="495" viewBox="0 0 662 495" fill="none" xmlns="http://www.w3.org/2000/svg">
<g clip-path="url(#clip0)">
<path d="M649.276 337.433H155.066C151.693 337.429 148.458 336.087 146.073 333.702C143.687 331.316 142.346 328.082 142.342 324.708V19.9689C142.345 17.4974 143.328 15.1278 145.075 13.3801C146.823 11.6325 149.192 10.6493 151.664 10.6465H652.517C655.031 10.6494 657.442 11.6494 659.22 13.4274C660.998 15.2053 661.998 17.6158 662 20.1301V324.708C661.997 328.082 660.655 331.316 658.269 333.702C655.884 336.087 652.649 337.429 649.276 337.433V337.433Z" fill="#F2F2F2"/>
<path d="M631.247 319.413H170.657C163.905 319.413 158.412 314.269 158.412 307.947V42.5761C158.412 37.8872 162.482 34.0723 167.486 34.0723H634.268C639.354 34.0723 643.492 37.9501 643.492 42.7162V307.947C643.492 314.269 637.998 319.413 631.247 319.413Z" fill="white"/>
<path d="M661.822 19.2414H142.162V12.7631C142.167 9.37824 143.514 6.13353 145.909 3.74082C148.303 1.3481 151.548 0.0027833 154.933 0H649.051C652.436 0.00278579 655.682 1.34811 658.076 3.74083C660.47 6.13355 661.817 9.37825 661.822 12.7631V19.2414Z" fill="#E6E6E6"/>
<path d="M165.372 12.9426C167.196 12.9426 168.675 11.4637 168.675 9.63927C168.675 7.81489 167.196 6.33594 165.372 6.33594C163.547 6.33594 162.068 7.81489 162.068 9.63927C162.068 11.4637 163.547 12.9426 165.372 12.9426Z" fill="white"/>
<path d="M177.911 12.9426C179.735 12.9426 181.214 11.4637 181.214 9.63927C181.214 7.81489 179.735 6.33594 177.911 6.33594C176.086 6.33594 174.607 7.81489 174.607 9.63927C174.607 11.4637 176.086 12.9426 177.911 12.9426Z" fill="white"/>
<path d="M190.45 12.9426C192.274 12.9426 193.753 11.4637 193.753 9.63927C193.753 7.81489 192.274 6.33594 190.45 6.33594C188.625 6.33594 187.146 7.81489 187.146 9.63927C187.146 11.4637 188.625 12.9426 190.45 12.9426Z" fill="white"/>
<path d="M364.45 244.818H611.107C614.38 244.818 617.518 243.518 619.832 241.204C622.146 238.89 623.446 235.752 623.446 232.479V121.005C623.446 117.733 622.146 114.594 619.832 112.28C617.518 109.966 614.38 108.666 611.107 108.666H364.45C361.178 108.666 358.039 109.966 355.725 112.28C353.411 114.594 352.111 117.733 352.111 121.005V232.479C352.111 235.752 353.411 238.89 355.725 241.204C358.039 243.518 361.178 244.818 364.45 244.818V244.818Z" fill="#F2F2F2"/>
<path d="M584.177 182.911H387.523C385.887 182.911 384.318 182.261 383.161 181.104C382.004 179.947 381.354 178.378 381.354 176.742C381.354 175.106 382.004 173.536 383.161 172.379C384.318 171.222 385.887 170.572 387.523 170.572H584.177C585.813 170.572 587.382 171.222 588.539 172.379C589.696 173.536 590.346 175.106 590.346 176.742C590.346 178.378 589.696 179.947 588.539 181.104C587.382 182.261 585.813 182.911 584.177 182.911V182.911Z" fill="white"/>
<path d="M584.177 209.132H387.523C385.887 209.132 384.318 208.482 383.161 207.325C382.004 206.168 381.354 204.599 381.354 202.963C381.354 201.326 382.004 199.757 383.161 198.6C384.318 197.443 385.887 196.793 387.523 196.793H584.177C585.813 196.793 587.382 197.443 588.539 198.6C589.696 199.757 590.346 201.326 590.346 202.963C590.346 204.599 589.696 206.168 588.539 207.325C587.382 208.482 585.813 209.132 584.177 209.132V209.132Z" fill="white"/>
<path d="M549.473 156.691H387.523C385.887 156.691 384.318 156.041 383.161 154.884C382.004 153.727 381.354 152.157 381.354 150.521C381.354 148.885 382.004 147.316 383.161 146.159C384.318 145.002 385.887 144.352 387.523 144.352H549.473C551.11 144.352 552.679 145.002 553.836 146.159C554.993 147.316 555.643 148.885 555.643 150.521C555.643 152.157 554.993 153.727 553.836 154.884C552.679 156.041 551.11 156.691 549.473 156.691V156.691Z" fill="white"/>
<path d="M243.32 294.733C243.6 293.392 244.171 292.128 244.992 291.031C245.813 289.934 246.864 289.03 248.072 288.383C249.28 287.737 250.615 287.363 251.984 287.288C253.352 287.213 254.72 287.439 255.991 287.95L277.857 262.824L282.502 279.498L261.025 300.802C260.025 302.881 258.298 304.52 256.169 305.411C254.041 306.301 251.66 306.379 249.478 305.631C247.295 304.883 245.463 303.361 244.328 301.352C243.193 299.343 242.835 296.988 243.321 294.733H243.32Z" fill="#FFB8B8"/>
<path d="M363.331 176.825C375.974 176.825 386.224 166.576 386.224 153.932C386.224 141.289 375.974 131.039 363.331 131.039C350.687 131.039 340.438 141.289 340.438 153.932C340.438 166.576 350.687 176.825 363.331 176.825Z" fill="#FFB8B8"/>
<path d="M336.438 469.046L325.01 469.045L319.574 424.969L336.439 424.97L336.438 469.046Z" fill="#FFB8B8"/>
<path d="M339.35 480.123L302.504 480.122V479.656C302.504 477.772 302.875 475.907 303.596 474.167C304.316 472.427 305.373 470.846 306.704 469.515C308.036 468.183 309.617 467.127 311.357 466.406C313.097 465.685 314.962 465.314 316.846 465.314H316.846L339.351 465.315L339.35 480.123Z" fill="#2F2E41"/>
<path d="M370.923 481.165L359.496 481.164L357.914 438.14L370.925 437.088L370.923 481.165Z" fill="#FFB8B8"/>
<path d="M373.838 492.24L336.992 492.239V491.773C336.992 489.89 337.363 488.025 338.084 486.285C338.805 484.545 339.861 482.964 341.193 481.632C342.524 480.3 344.105 479.244 345.846 478.523C347.586 477.802 349.45 477.432 351.334 477.432H351.335L373.839 477.433L373.838 492.24Z" fill="#2F2E41"/>
<path d="M367.674 473.12L358.775 472.072C357.766 471.951 356.835 471.468 356.154 470.714C355.473 469.959 355.088 468.983 355.071 467.967L353.404 352.072C353.399 351.744 353.279 351.428 353.065 351.18C352.85 350.931 352.556 350.766 352.232 350.713C351.909 350.66 351.577 350.722 351.294 350.889C351.012 351.056 350.797 351.317 350.688 351.626L338.342 386.485L339.225 451.826C339.24 452.905 338.838 453.948 338.104 454.738C337.37 455.528 336.36 456.005 335.283 456.07L323.666 456.563C322.603 456.624 321.557 456.28 320.737 455.602C319.917 454.923 319.383 453.96 319.243 452.905L313.176 378.989L313.172 378.943L322.378 301.748L391.524 306.751L372.329 469.446C372.208 470.465 371.717 471.405 370.95 472.087C370.183 472.769 369.193 473.147 368.166 473.149C368.002 473.149 367.837 473.139 367.674 473.12Z" fill="#2F2E41"/>
<path d="M322.673 308.592C322.053 308.261 321.526 307.778 321.142 307.188C320.758 306.598 320.53 305.921 320.479 305.219C320.479 305.219 326.696 266.552 328.975 265.827L323.99 224.476C323.392 219.433 323.809 214.321 325.214 209.441C326.62 204.56 328.986 200.01 332.174 196.057C335.244 192.221 339.059 189.048 343.39 186.728C347.72 184.408 352.476 182.989 357.37 182.558C358.067 182.495 358.76 182.447 359.449 182.414C365.348 182.098 371.236 183.211 376.613 185.658C381.99 188.106 386.697 191.815 390.333 196.472C394.104 201.168 396.686 206.705 397.857 212.614C399.029 218.522 398.756 224.625 397.062 230.406L394.266 240.136V308.138C394.263 308.801 394.104 309.455 393.803 310.047C393.502 310.638 393.066 311.15 392.53 311.543C383.824 317.933 373.985 320.192 364.423 320.192C346.33 320.192 329.23 312.102 322.673 308.592Z" fill="#37C2CC"/>
<path d="M268.994 296.148L256.968 287.155C256.496 286.803 256.104 286.355 255.817 285.84C255.53 285.326 255.354 284.757 255.302 284.17C255.249 283.583 255.321 282.992 255.512 282.435C255.703 281.878 256.01 281.367 256.412 280.936L328.055 204.063C330.355 201.617 333.455 200.076 336.794 199.721C340.133 199.366 343.488 200.22 346.25 202.128L346.251 202.128C347.934 203.302 349.338 204.832 350.362 206.61C351.387 208.388 352.007 210.37 352.178 212.415C352.35 214.46 352.068 216.517 351.354 218.441C350.639 220.365 349.51 222.107 348.045 223.544L274.444 295.783C273.797 296.424 272.958 296.835 272.056 296.955C271.153 297.074 270.236 296.894 269.446 296.443C269.289 296.355 269.138 296.256 268.994 296.148V296.148Z" fill="#37C2CC"/>
<path d="M361.038 285.969C361.563 284.704 362.36 283.569 363.372 282.645C364.383 281.721 365.585 281.03 366.893 280.62C368.201 280.211 369.582 280.093 370.94 280.275C372.298 280.458 373.6 280.936 374.753 281.675L400.932 261.082L402.377 278.33L377.295 295.242C375.924 297.097 373.92 298.385 371.663 298.861C369.406 299.338 367.052 298.97 365.048 297.827C363.044 296.684 361.529 294.845 360.79 292.66C360.051 290.475 360.139 288.094 361.038 285.969V285.969Z" fill="#FFB8B8"/>
<path d="M384.469 294.01C383.776 293.795 383.151 293.402 382.657 292.871C382.163 292.339 381.816 291.688 381.651 290.982L379.007 279.875C378.813 279.086 378.855 278.258 379.129 277.494C379.402 276.729 379.895 276.062 380.545 275.576L398.338 256.333L372.166 215.977C370.185 213.538 369.069 210.511 368.991 207.37C368.913 204.229 369.878 201.151 371.735 198.616C373.216 196.597 375.204 195.005 377.499 194.001C379.793 192.998 382.311 192.618 384.799 192.902C387.287 193.185 389.656 194.121 391.666 195.615C393.676 197.108 395.255 199.107 396.244 201.407L420.576 248.767C422.995 253.472 423.598 258.903 422.271 264.025C420.944 269.146 417.779 273.6 413.379 276.539L388.514 293.149C387.752 293.83 386.767 294.207 385.745 294.208C385.312 294.208 384.882 294.141 384.469 294.01Z" fill="#37C2CC"/>
<path d="M380.294 174.399C379.755 174.722 379.148 174.918 378.521 174.969C377.894 175.021 377.263 174.928 376.678 174.696C376.093 174.465 375.569 174.103 375.146 173.636C374.724 173.17 374.414 172.613 374.242 172.008L374.228 171.951C373.761 170.046 374.129 168.052 374.25 166.095C374.37 164.138 374.167 161.989 372.827 160.558C370.328 157.889 365.917 159.335 362.321 158.676C360.214 158.217 358.347 157.007 357.068 155.271C355.79 153.536 355.188 151.394 355.374 149.246C355.423 148.839 355.501 148.431 355.589 148.024C355.808 146.992 355.785 145.923 355.522 144.901C355.258 143.879 354.761 142.933 354.07 142.135C353.38 141.338 352.513 140.711 351.539 140.305C350.566 139.899 349.511 139.724 348.458 139.794C344.829 140.021 340.916 141.141 337.898 138.469C336.792 137.414 336.02 136.057 335.68 134.566C335.339 133.076 335.445 131.518 335.985 130.088C337.673 125.128 342.506 122.511 347.295 121.061C353.219 119.315 359.456 118.911 365.555 119.878C371.654 120.846 377.461 123.16 382.553 126.652C385.594 128.772 388.438 131.44 389.747 134.907C391.057 138.375 390.458 142.762 387.558 145.071C389.828 147.448 391.433 150.381 392.213 153.574C392.992 156.768 392.919 160.11 392 163.266C390.587 167.908 383.747 172.387 380.294 174.399Z" fill="#2F2E41"/>
<path d="M405.363 494.007H268.346C268.099 494.007 267.862 493.909 267.687 493.734C267.512 493.559 267.414 493.322 267.414 493.075C267.414 492.827 267.512 492.59 267.687 492.416C267.862 492.241 268.099 492.143 268.346 492.143H405.363C405.878 492.143 405.781 493.075 406.295 493.075C406.527 493.075 405.878 494.007 405.363 494.007Z" fill="#CCCCCC"/>
<path d="M254.751 109.831C253.962 107.647 252.519 105.759 250.619 104.423C248.72 103.087 246.455 102.369 244.132 102.365H11.2822C8.29114 102.364 5.42211 103.551 3.30629 105.665C1.19047 107.78 0.00115917 110.648 0 113.639V292.333C0.00423613 295.324 1.19426 298.192 3.30916 300.306C5.42407 302.421 8.29128 303.611 11.2822 303.616H244.132C247.123 303.611 249.99 302.421 252.105 300.306C254.22 298.192 255.41 295.324 255.414 292.333V113.647C255.416 112.347 255.192 111.055 254.751 109.831V109.831Z" fill="white"/>
<path d="M254.751 109.831C253.962 107.647 252.519 105.759 250.619 104.423C248.72 103.087 246.455 102.369 244.132 102.365H11.2822C8.29114 102.364 5.42211 103.551 3.30629 105.665C1.19047 107.78 0.00115917 110.648 0 113.639V292.333C0.00423613 295.324 1.19426 298.192 3.30916 300.306C5.42407 302.421 8.29128 303.611 11.2822 303.616H244.132C247.123 303.611 249.99 302.421 252.105 300.306C254.22 298.192 255.41 295.324 255.414 292.333V113.647C255.416 112.347 255.192 111.055 254.751 109.831V109.831ZM254.087 292.333C254.084 294.973 253.034 297.503 251.168 299.369C249.301 301.235 246.771 302.285 244.132 302.288H11.2822C8.643 302.285 6.11282 301.235 4.24663 299.369C2.38044 297.503 1.3306 294.973 1.32739 292.333V113.647C1.3306 111.008 2.38044 108.478 4.24664 106.612C6.11284 104.746 8.64302 103.696 11.2822 103.693H244.132C246.771 103.696 249.301 104.746 251.168 106.612C253.034 108.478 254.084 111.008 254.087 113.647V292.333Z" fill="#3F3D56"/>
<path d="M237.456 126.409V251.18C237.456 252.013 237.126 252.811 236.537 253.401C235.949 253.99 235.15 254.321 234.317 254.321H22.5085C22.3577 254.322 22.2071 254.311 22.0583 254.286C21.3112 254.178 20.6278 253.805 20.1335 253.235C19.6393 252.664 19.3672 251.935 19.3672 251.18V126.409C19.3671 125.996 19.4481 125.588 19.6058 125.207C19.7635 124.826 19.9947 124.48 20.2862 124.188C20.5777 123.896 20.9238 123.665 21.3047 123.507C21.6857 123.349 22.094 123.268 22.5064 123.268H234.315C234.727 123.267 235.136 123.349 235.517 123.506C235.898 123.664 236.244 123.895 236.536 124.187C236.827 124.478 237.059 124.824 237.217 125.205C237.375 125.586 237.456 125.994 237.456 126.407V126.409V126.409Z" fill="#E6E6E6"/>
<path d="M72.758 197.455C87.9783 197.455 100.317 185.117 100.317 169.897C100.317 154.676 87.9783 142.338 72.758 142.338C57.5377 142.338 45.1992 154.676 45.1992 169.897C45.1992 185.117 57.5377 197.455 72.758 197.455Z" fill="#37C2CC"/>
<path d="M159.179 254.822H23.9837C23.8144 254.824 23.6453 254.81 23.4785 254.782L87.4196 144.026C87.8099 143.337 88.3762 142.763 89.0608 142.364C89.7454 141.964 90.5237 141.754 91.3162 141.754C92.1087 141.754 92.887 141.964 93.5716 142.364C94.2562 142.763 94.8226 143.337 95.2128 144.026L138.125 218.352L140.181 221.908L159.179 254.822Z" fill="#3F3D56"/>
<path opacity="0.2" d="M159.178 254.821H113.02L135.679 221.907L137.31 219.537L138.125 218.352L140.181 221.907L159.178 254.821Z" fill="black"/>
<path d="M234.454 254.823H117.521L140.181 221.909L141.811 219.538L171.338 176.646C173.274 173.834 177.931 173.659 180.207 176.115C180.36 176.283 180.502 176.46 180.632 176.646L234.454 254.823Z" fill="#3F3D56"/>
</g>
<defs>
<clipPath id="clip0">
<rect width="662" height="494.007" fill="white"/>
</clipPath>
</defs>
</svg>
